<?xml version="1.0" encoding="UTF-8" standalone="no"?>
<!DOCTYPE svg PUBLIC "-//W3C//DTD SVG 1.1//EN" "http://www.w3.org/Graphics/SVG/1.1/DTD/svg11.dtd">
<svg version="1.1" xmlns="http://www.w3.org/2000/svg" xmlns:xlink="http://www.w3.org/1999/xlink" preserveAspectRatio="xMidYMid meet" viewBox="0 0 45 35" width="45" height="35"><defs><path d="M40.96 5.26C42.62 5.26 43.97 6.61 43.97 8.27C43.97 12.59 43.97 22.55 43.97 26.87C43.97 28.53 42.62 29.88 40.96 29.88C33.09 29.88 12.51 29.88 4.65 29.88C2.99 29.88 1.64 28.53 1.64 26.87C1.64 22.55 1.64 12.59 1.64 8.27C1.64 6.61 2.99 5.26 4.65 5.26C12.51 5.26 33.09 5.26 40.96 5.26Z" id="ckpPh0Xe7"></path><path d="M15.44 25.86L29.74 17.57L34.66 26.04L20.36 34.33L15.44 25.86Z" id="d30NWEArso"></path></defs><g><g><g><use xlink:href="#ckpPh0Xe7" opacity="1" fill="#13946c" fill-opacity="1"></use></g><g><use xlink:href="#d30NWEArso" opacity="1" fill="#13946c" fill-opacity="1"></use></g></g></g></svg>